<mxfile host="65bd71144e">
    <diagram id="vWYeZnBhxLeXJk-lzJxo" name="Page-1">
        <mxGraphModel dx="650" dy="478" grid="1" gridSize="10" guides="1" tooltips="1" connect="1" arrows="1" fold="1" page="1" pageScale="1" pageWidth="850" pageHeight="1100" math="0" shadow="0">
            <root>
                <mxCell id="0"/>
                <mxCell id="1" parent="0"/>
                <mxCell id="9uyREd5VoiaNZwgwDETJ-1" style="edgeStyle=orthogonalEdgeStyle;rounded=0;orthogonalLoop=1;jettySize=auto;html=1;entryX=0.5;entryY=0;entryDx=0;entryDy=0;fontSize=15;" parent="1" source="9uyREd5VoiaNZwgwDETJ-2" target="9uyREd5VoiaNZwgwDETJ-4" edge="1">
                    <mxGeometry relative="1" as="geometry"/>
                </mxCell>
                <mxCell id="9uyREd5VoiaNZwgwDETJ-2" value="&lt;b&gt;START&lt;/b&gt;" style="ellipse;whiteSpace=wrap;html=1;" parent="1" vertex="1">
                    <mxGeometry x="510" y="80" width="120" height="70" as="geometry"/>
                </mxCell>
                <mxCell id="WSGCVs09SODB3bQry3AC-4" value="" style="edgeStyle=none;html=1;" parent="1" source="9uyREd5VoiaNZwgwDETJ-4" target="WSGCVs09SODB3bQry3AC-1" edge="1">
                    <mxGeometry relative="1" as="geometry"/>
                </mxCell>
                <mxCell id="9uyREd5VoiaNZwgwDETJ-4" value="&lt;b&gt;INPUT TEXT&lt;/b&gt;" style="shape=parallelogram;perimeter=parallelogramPerimeter;whiteSpace=wrap;html=1;fixedSize=1;" parent="1" vertex="1">
                    <mxGeometry x="510" y="185" width="120" height="60" as="geometry"/>
                </mxCell>
                <mxCell id="9uyREd5VoiaNZwgwDETJ-20" value="&lt;b&gt;END&lt;/b&gt;" style="ellipse;whiteSpace=wrap;html=1;fontSize=15;" parent="1" vertex="1">
                    <mxGeometry x="515" y="842.98" width="120" height="80" as="geometry"/>
                </mxCell>
                <mxCell id="9uyREd5VoiaNZwgwDETJ-37" style="edgeStyle=orthogonalEdgeStyle;rounded=0;orthogonalLoop=1;jettySize=auto;html=1;entryX=0.5;entryY=0;entryDx=0;entryDy=0;fontSize=14;" parent="1" source="9uyREd5VoiaNZwgwDETJ-33" target="9uyREd5VoiaNZwgwDETJ-36" edge="1">
                    <mxGeometry relative="1" as="geometry">
                        <Array as="points">
                            <mxPoint x="415" y="562.98"/>
                        </Array>
                    </mxGeometry>
                </mxCell>
                <mxCell id="9uyREd5VoiaNZwgwDETJ-40" value="true" style="edgeLabel;html=1;align=center;verticalAlign=middle;resizable=0;points=[];fontSize=14;fontStyle=1" parent="9uyREd5VoiaNZwgwDETJ-37" vertex="1" connectable="0">
                    <mxGeometry x="0.1515" relative="1" as="geometry">
                        <mxPoint as="offset"/>
                    </mxGeometry>
                </mxCell>
                <mxCell id="9uyREd5VoiaNZwgwDETJ-38" style="edgeStyle=orthogonalEdgeStyle;rounded=0;orthogonalLoop=1;jettySize=auto;html=1;entryX=0.575;entryY=-0.05;entryDx=0;entryDy=0;entryPerimeter=0;fontSize=14;" parent="1" source="9uyREd5VoiaNZwgwDETJ-33" target="9uyREd5VoiaNZwgwDETJ-35" edge="1">
                    <mxGeometry relative="1" as="geometry">
                        <Array as="points">
                            <mxPoint x="727" y="562.98"/>
                        </Array>
                    </mxGeometry>
                </mxCell>
                <mxCell id="9uyREd5VoiaNZwgwDETJ-39" value="&lt;b&gt;false&lt;/b&gt;" style="edgeLabel;html=1;align=center;verticalAlign=middle;resizable=0;points=[];fontSize=14;" parent="9uyREd5VoiaNZwgwDETJ-38" vertex="1" connectable="0">
                    <mxGeometry x="0.0649" y="1" relative="1" as="geometry">
                        <mxPoint as="offset"/>
                    </mxGeometry>
                </mxCell>
                <mxCell id="9uyREd5VoiaNZwgwDETJ-33" value="&lt;b&gt;if &lt;br&gt;input[i] == &quot;a&quot;&lt;br&gt;&lt;/b&gt;" style="rhombus;whiteSpace=wrap;html=1;fontSize=15;" parent="1" vertex="1">
                    <mxGeometry x="480" y="512.98" width="190" height="100" as="geometry"/>
                </mxCell>
                <mxCell id="9uyREd5VoiaNZwgwDETJ-44" style="edgeStyle=orthogonalEdgeStyle;rounded=0;orthogonalLoop=1;jettySize=auto;html=1;entryX=1;entryY=0.5;entryDx=0;entryDy=0;fontSize=15;" parent="1" source="9uyREd5VoiaNZwgwDETJ-35" target="9uyREd5VoiaNZwgwDETJ-42" edge="1">
                    <mxGeometry relative="1" as="geometry">
                        <Array as="points">
                            <mxPoint x="725" y="782.98"/>
                        </Array>
                    </mxGeometry>
                </mxCell>
                <mxCell id="9uyREd5VoiaNZwgwDETJ-35" value="&lt;b&gt;result += input[i]&amp;nbsp;&lt;/b&gt;" style="rounded=0;whiteSpace=wrap;html=1;fontSize=15;" parent="1" vertex="1">
                    <mxGeometry x="640" y="662.98" width="160" height="60" as="geometry"/>
                </mxCell>
                <mxCell id="9uyREd5VoiaNZwgwDETJ-43" style="edgeStyle=orthogonalEdgeStyle;rounded=0;orthogonalLoop=1;jettySize=auto;html=1;entryX=0;entryY=0.5;entryDx=0;entryDy=0;fontSize=15;" parent="1" source="9uyREd5VoiaNZwgwDETJ-36" target="9uyREd5VoiaNZwgwDETJ-42" edge="1">
                    <mxGeometry relative="1" as="geometry">
                        <Array as="points">
                            <mxPoint x="415" y="782.98"/>
                        </Array>
                    </mxGeometry>
                </mxCell>
                <mxCell id="9uyREd5VoiaNZwgwDETJ-36" value="&lt;b&gt;result += &quot;o&quot;&amp;nbsp;&lt;/b&gt;" style="rounded=0;whiteSpace=wrap;html=1;fontSize=15;" parent="1" vertex="1">
                    <mxGeometry x="335" y="662.98" width="160" height="60" as="geometry"/>
                </mxCell>
                <mxCell id="9uyREd5VoiaNZwgwDETJ-41" value="&lt;b style=&quot;font-size: 18px&quot;&gt;Flowchart mengubah huruf&amp;nbsp; A menjadi O&lt;/b&gt;" style="text;html=1;align=center;verticalAlign=middle;resizable=0;points=[];autosize=1;strokeColor=none;fillColor=none;fontSize=14;" parent="1" vertex="1">
                    <mxGeometry x="390" y="50" width="360" height="20" as="geometry"/>
                </mxCell>
                <mxCell id="9uyREd5VoiaNZwgwDETJ-45" value="" style="edgeStyle=orthogonalEdgeStyle;rounded=0;orthogonalLoop=1;jettySize=auto;html=1;fontSize=15;" parent="1" source="9uyREd5VoiaNZwgwDETJ-42" target="9uyREd5VoiaNZwgwDETJ-20" edge="1">
                    <mxGeometry relative="1" as="geometry"/>
                </mxCell>
                <mxCell id="9uyREd5VoiaNZwgwDETJ-42" value="output result" style="shape=parallelogram;perimeter=parallelogramPerimeter;whiteSpace=wrap;html=1;fixedSize=1;fontSize=15;fontStyle=1" parent="1" vertex="1">
                    <mxGeometry x="510" y="752.98" width="130" height="60" as="geometry"/>
                </mxCell>
                <mxCell id="9uyREd5VoiaNZwgwDETJ-46" value="&lt;span&gt;Algoritma&lt;br&gt;1. mulai&lt;br&gt;2. memasukkan input text&lt;br&gt;3. apabila tipe data input bukan string atau panjang input = 0&lt;br&gt;4. jika benar maka selesai&lt;br&gt;&lt;/span&gt;&lt;div&gt;&lt;span&gt;6. jika variable i = 0 kurang dari panjang input&lt;/span&gt;&lt;/div&gt;&lt;div&gt;&lt;span&gt;7. lakukan increment&lt;/span&gt;&lt;/div&gt;&lt;div&gt;&lt;span&gt;8. lalu apabila input index ke i berhuruf a&lt;/span&gt;&lt;/div&gt;&lt;div&gt;&lt;span&gt;9. jika salah result ditambah dengan input index ke i&amp;nbsp;&lt;/span&gt;&lt;/div&gt;&lt;div&gt;&lt;span&gt;10. jika benar result ditambah dengan huruf o&lt;/span&gt;&lt;/div&gt;&lt;div&gt;11. output result&lt;/div&gt;&lt;div&gt;&lt;span&gt;12. selesai&lt;/span&gt;&lt;/div&gt;" style="text;html=1;align=left;verticalAlign=middle;resizable=0;points=[];autosize=1;strokeColor=none;fillColor=none;fontSize=15;fontStyle=1" parent="1" vertex="1">
                    <mxGeometry x="20" y="80" width="450" height="220" as="geometry"/>
                </mxCell>
                <mxCell id="WSGCVs09SODB3bQry3AC-5" style="edgeStyle=none;html=1;entryX=0;entryY=0.5;entryDx=0;entryDy=0;" parent="1" source="WSGCVs09SODB3bQry3AC-1" target="9uyREd5VoiaNZwgwDETJ-20" edge="1">
                    <mxGeometry relative="1" as="geometry">
                        <Array as="points">
                            <mxPoint x="300" y="310"/>
                            <mxPoint x="300" y="320"/>
                            <mxPoint x="300" y="380"/>
                            <mxPoint x="300" y="470"/>
                            <mxPoint x="300" y="740"/>
                            <mxPoint x="300" y="880"/>
                        </Array>
                    </mxGeometry>
                </mxCell>
                <mxCell id="WSGCVs09SODB3bQry3AC-6" value="true" style="edgeLabel;html=1;align=center;verticalAlign=middle;resizable=0;points=[];fontStyle=1;fontSize=14;" parent="WSGCVs09SODB3bQry3AC-5" vertex="1" connectable="0">
                    <mxGeometry x="-0.9029" y="-2" relative="1" as="geometry">
                        <mxPoint as="offset"/>
                    </mxGeometry>
                </mxCell>
                <mxCell id="mwVllYBKmnYcW0Y0dfRz-5" value="false" style="edgeStyle=none;html=1;strokeWidth=1;fontSize=14;fontStyle=1" parent="1" source="WSGCVs09SODB3bQry3AC-1" target="3" edge="1">
                    <mxGeometry relative="1" as="geometry"/>
                </mxCell>
                <mxCell id="WSGCVs09SODB3bQry3AC-1" value="&lt;b&gt;typeof input != string || input.lenght == 0&lt;/b&gt;" style="rhombus;whiteSpace=wrap;html=1;" parent="1" vertex="1">
                    <mxGeometry x="485" y="270" width="170" height="80" as="geometry"/>
                </mxCell>
                <mxCell id="5" value="" style="edgeStyle=none;html=1;" parent="1" source="3" target="9uyREd5VoiaNZwgwDETJ-33" edge="1">
                    <mxGeometry relative="1" as="geometry"/>
                </mxCell>
                <mxCell id="3" value="&lt;b style=&quot;font-size: 15px&quot;&gt;i = 0 ;&lt;br&gt;&amp;nbsp;i &amp;lt; input.length ?&lt;br&gt;i++&amp;nbsp;&lt;/b&gt;" style="rounded=0;whiteSpace=wrap;html=1;" parent="1" vertex="1">
                    <mxGeometry x="485" y="400" width="170" height="70" as="geometry"/>
                </mxCell>
            </root>
        </mxGraphModel>
    </diagram>
</mxfile>